# xmcd
#
# Track frame offsets: 
#        150
#        14605
#        36046
#        57544
#        70634
#        87526
#        113166
#        130705
#        153053
#        167532
#        185477
#        209658
#        225916
#        255509
#        276922
#        296775
#
# Disc length: 4174 seconds
#
# Revision: 0
# Processed by: cddbd v1.5.2PL0 Copyright (c) Steve Scherf et al.
# Submitted via: ExactAudioCopy v1.0b3
#
DISCID=df104c10
DTITLE=Klassikot - Sir Elwoodin hiljaiset värit
DYEAR=2012
DGENRE=Blues
TTITLE0=Sellaista se on
TTITLE1=Viimeisellä rannalla
TTITLE2=Älä mee
TTITLE3=Neiti kevät
TTITLE4=Perunamaa
TTITLE5=Elisa
TTITLE6=Viimeinkin
TTITLE7=Vanha valokuva
TTITLE8=Älä itke
TTITLE9=Katso tähtiä
TTITLE10=Hämärän taa
TTITLE11=Kulkuriveljeni Jan
TTITLE12=Kerran elämässä
TTITLE13=Jumala rankaisee Helsinkiä tänä yönä
TTITLE14=Bussi 17
TTITLE15=Tango
EXTD=
EXTT0=
EXTT1=
EXTT2=
EXTT3=
EXTT4=
EXTT5=
EXTT6=
EXTT7=
EXTT8=
EXTT9=
EXTT10=
EXTT11=
EXTT12=
EXTT13=
EXTT14=
EXTT15=
PLAYORDER=
